# File created by Blade
# Date/Time:  Wed Jan 21 17:34:04 2015
# Frame Rate: 120.000 fps
#------------------------------------------------------
:FULLY-SPECIFIED
:DEGREES
356
root 20.186970 12.550867 -14.872237 -186.557887 1.701548 -170.806948
Spine 76.676706 9.982536 5.419840
Head 3.785422 -3.717501 5.313298
LeftShoulder 12.569710 -27.424598 -5.155630
LeftArm 9.385228 10.926634 -58.081317
LeftForeArm -52.093616 -0.000000 7.573379
LeftHand 2.105323 0.000000 -4.781493
LeftHandThumb1 -26.253704 0.000000 33.147579
RightShoulder 11.536287 5.256972 -5.477096
RightArm 37.962785 2.266933 25.360744
RightForeArm -37.005086 -0.000000 50.998969
RightHand 0.722994 -0.000000 -3.551651
RightHandThumb1 -24.326973 -0.000000 -32.862282
LeftUpLeg -94.711553 2.585565 -11.612524
LeftLeg 144.064697 -0.000000 -0.000000
LeftFoot -46.818832 30.871428 -14.819676
LeftToeBase 8.131337 -0.000000 -0.000000
RightUpLeg -86.690046 2.117470 16.618948
RightLeg 139.040330 -0.000000 -0.000000
RightFoot -56.307822 -24.636289 24.166329
RightToeBase 17.061047 -0.000000 -0.000000
357
root 20.108805 12.596268 -14.778313 -186.765002 1.967611 -171.012856
Spine 76.561433 10.073782 5.027966
Head 4.097663 -3.631549 5.079167
LeftShoulder 12.643721 -27.291287 -5.293769
LeftArm 9.612120 11.280252 -57.786219
LeftForeArm -52.491842 0.000000 7.167576
LeftHand 1.958601 -0.000000 -4.922738
LeftHandThumb1 -26.253704 0.000000 33.147579
RightShoulder 11.981734 5.892822 -5.794813
RightArm 37.591406 2.484784 25.354842
RightForeArm -35.615543 -0.000000 50.216919
RightHand 1.380401 -0.000000 -2.934414
RightHandThumb1 -24.326973 -0.000000 -32.862282
LeftUpLeg -94.965293 2.542440 -12.035746
LeftLeg 143.663480 -0.000000 -0.000000
LeftFoot -45.664783 31.452244 -14.276588
LeftToeBase 8.548828 -0.000000 -0.000000
RightUpLeg -86.475858 2.132308 16.079881
RightLeg 138.650223 -0.000000 -0.000000
RightFoot -56.382149 -24.266218 24.155451
RightToeBase 17.610950 -0.000000 -0.000000
358
root 20.039288 12.657084 -14.682944 -187.034318 2.305604 -171.083436
Spine 76.564668 10.134072 4.747735
Head 4.306455 -3.427149 4.725464
LeftShoulder 12.633152 -27.177005 -5.449738
LeftArm 9.918902 11.788608 -57.426959
LeftForeArm -53.110974 -0.000000 6.778881
LeftHand 1.708370 -0.000000 -5.165505
LeftHandThumb1 -26.253704 0.000000 33.147579
RightShoulder 12.538803 6.611328 -6.211283
RightArm 37.195331 2.614771 25.292827
RightForeArm -34.724826 0.000000 49.397466
RightHand 2.145636 -0.000000 -2.636087
RightHandThumb1 -24.326973 -0.000000 -32.862282
LeftUpLeg -95.168195 2.606671 -12.289097
LeftLeg 143.144537 -0.000000 -0.000000
LeftFoot -44.721694 31.960348 -13.863433
LeftToeBase 9.013678 -0.000000 -0.000000
RightUpLeg -86.129253 2.164615 15.740582
RightLeg 138.178702 -0.000000 -0.000000
RightFoot -56.460688 -23.963505 24.189241
RightToeBase 17.949369 -0.000000 -0.000000
359
root 19.971371 12.715578 -14.583643 -187.298165 2.691779 -171.173377
Spine 76.542323 10.252003 4.465704
Head 4.564937 -3.220016 4.391550
LeftShoulder 12.632575 -27.059636 -5.596586
LeftArm 10.193220 12.521049 -57.008484
LeftForeArm -53.907871 -0.000000 6.491245
LeftHand 1.414761 0.000000 -5.196327
LeftHandThumb1 -26.253704 0.000000 33.147579
RightShoulder 13.092471 7.226510 -6.688420
RightArm 36.849299 2.658680 25.144901
RightForeArm -34.109466 -0.000000 48.579887
RightHand 2.714578 -0.000000 -2.859326
RightHandThumb1 -24.326973 -0.000000 -32.862282
LeftUpLeg -95.380746 2.742549 -12.581572
LeftLeg 142.522999 -0.000000 -0.000000
LeftFoot -43.899007 32.291335 -13.288900
LeftToeBase 11.205954 -0.000000 -0.000000
RightUpLeg -85.811305 2.217610 15.418260
RightLeg 137.688432 -0.000000 -0.000000
RightFoot -56.471597 -23.684830 24.067416
RightToeBase 18.333415 -0.000000 -0.000000
